<svg width="800" height="181" viewBox="0 0 800 181" fill="none" xmlns="http://www.w3.org/2000/svg">
<rect width="800" height="181" fill="white" style="fill:white;fill-opacity:1;"/>
<path fill-rule="evenodd" clip-rule="evenodd" d="M144.52 108.895C143.527 117.593 140.862 126.122 135.82 133.388C123.904 150.561 103.38 156.294 83.1027 150.04C63.0907 143.869 43.6831 126.398 30 98.0885L48.7175 89.0417C60.6339 113.696 76.1829 126.151 89.2295 130.175C102.011 134.117 112.648 130.316 118.74 121.537C119.826 119.971 120.759 118.203 121.531 116.254C120.359 116.319 119.185 116.339 118.013 116.317C104.523 116.065 92.1746 110.211 82.8813 102.145C73.6508 94.1344 66.5644 83.183 64.498 71.5586C62.3399 59.4184 65.8108 46.6443 77.4543 37.7213C82.903 33.5457 88.8798 31.0674 95.1662 30.5881C101.435 30.1101 107.291 31.6749 112.432 34.4304C122.432 39.7893 130.207 49.8436 135.515 60.6294C138.878 67.461 141.486 75.0513 143.106 82.8496C152.445 72.8565 162.603 66.9134 171.201 63.5743C175.643 61.8491 179.732 60.7942 183.161 60.2406C186.167 59.7554 189.797 59.463 192.821 60.161L188.147 80.4178C188.508 80.501 188.701 80.5302 188.701 80.5302C188.699 80.5454 188.016 80.5151 186.474 80.7641C184.532 81.0776 181.853 81.7391 178.727 82.9534C172.499 85.3721 164.735 89.8862 157.533 97.8736C153.429 102.426 149.059 106.079 144.52 108.895ZM123.943 95.0598C123.163 86.3636 120.615 77.433 116.863 69.8095C112.587 61.1212 107.334 55.2843 102.613 52.7542C100.394 51.5652 98.4654 51.1861 96.7466 51.3171C95.045 51.4468 92.8293 52.1305 90.0999 54.2222C85.3872 57.8338 83.9901 62.4286 84.9663 67.92C86.0342 73.9273 90.0846 80.8703 96.5077 86.4448C102.868 91.9648 110.689 95.3876 118.402 95.5318C120.2 95.5654 122.053 95.4231 123.943 95.0598Z" fill="#FF5050" style="fill:#FF5050;fill:color(display-p3 1.0000 0.3120 0.3120);fill-opacity:1;"/>
<path fill-rule="evenodd" clip-rule="evenodd" d="M174.959 69.0614C164.997 65.9258 157.536 59.5073 151.327 52.4898L167.195 38.4522C172.166 44.0715 176.544 47.35 181.32 48.8531C185.983 50.321 192.435 50.5305 202.357 47.2201L210.986 66.454C203.643 70.6718 199.581 77.541 197.659 84.6474C196.701 88.1933 196.34 91.598 196.357 94.3657C196.373 97.1573 196.764 98.5775 196.812 98.7518C196.816 98.7665 196.816 98.7693 196.816 98.7693L177.314 107.045C175.774 103.416 175.197 98.8261 175.171 94.4935C175.143 89.9002 175.729 84.5874 177.208 79.1167C177.979 76.2656 179.011 73.317 180.354 70.3781C178.52 70.0552 176.722 69.6166 174.959 69.0614Z" fill="#FF5050" style="fill:#FF5050;fill:color(display-p3 1.0000 0.3120 0.3120);fill-opacity:1;"/>
<path d="M733.619 139.728V46.9251H754.287V139.728H733.619ZM718.76 91.6379V74.077H769.146V91.6379H718.76Z" fill="#003C5E" style="fill:#003C5E;fill:color(display-p3 0.0000 0.2353 0.3686);fill-opacity:1;"/>
<path d="M676.893 141.211C670.859 141.211 665.501 139.995 660.818 137.563C656.225 135.042 652.623 131.62 650.011 127.297C647.4 122.884 646.094 117.841 646.094 112.168V74.0739H666.762V111.897C666.762 114.149 667.122 116.085 667.843 117.706C668.653 119.327 669.824 120.588 671.355 121.488C672.886 122.389 674.732 122.839 676.893 122.839C679.955 122.839 682.387 121.894 684.188 120.002C685.989 118.021 686.889 115.32 686.889 111.897V74.0739H707.557V112.032C707.557 117.796 706.251 122.884 703.64 127.297C701.028 131.62 697.426 135.042 692.833 137.563C688.24 139.995 682.927 141.211 676.893 141.211Z" fill="#003C5E" style="fill:#003C5E;fill:color(display-p3 0.0000 0.2353 0.3686);fill-opacity:1;"/>
<path d="M610.09 141.21C603.336 141.21 597.212 139.724 591.718 136.752C586.225 133.781 581.902 129.683 578.75 124.46C575.598 119.236 574.022 113.383 574.022 106.899C574.022 100.325 575.598 94.4711 578.75 89.3379C581.992 84.1146 586.36 80.0171 591.854 77.0452C597.347 74.0734 603.516 72.5875 610.36 72.5875C615.493 72.5875 620.176 73.488 624.409 75.2891C628.731 77.0002 632.559 79.6118 635.891 83.124L622.653 96.3623C621.122 94.6512 619.321 93.3904 617.249 92.5799C615.268 91.7694 612.972 91.3641 610.36 91.3641C607.388 91.3641 604.732 92.0396 602.39 93.3904C600.139 94.6512 598.338 96.4523 596.987 98.7938C595.726 101.045 595.096 103.702 595.096 106.764C595.096 109.826 595.726 112.527 596.987 114.869C598.338 117.21 600.184 119.056 602.525 120.407C604.867 121.758 607.478 122.433 610.36 122.433C613.062 122.433 615.448 121.983 617.52 121.083C619.681 120.092 621.527 118.741 623.058 117.03L636.161 130.268C632.739 133.871 628.867 136.617 624.544 138.508C620.221 140.31 615.403 141.21 610.09 141.21Z" fill="#003C5E" style="fill:#003C5E;fill:color(display-p3 0.0000 0.2353 0.3686);fill-opacity:1;"/>
<path d="M532.212 139.728V46.9251H552.88V139.728H532.212ZM517.353 91.6379V74.077H567.739V91.6379H517.353Z" fill="#003C5E" style="fill:#003C5E;fill:color(display-p3 0.0000 0.2353 0.3686);fill-opacity:1;"/>
<path d="M458.936 139.723V74.0724H479.604V139.723H458.936ZM479.604 103.656L470.958 96.9016C472.669 89.2468 475.551 83.3031 479.604 79.0705C483.656 74.8379 489.285 72.7216 496.489 72.7216C499.641 72.7216 502.388 73.2169 504.729 74.2075C507.161 75.108 509.277 76.5489 511.078 78.5302L498.786 94.0648C497.885 93.0742 496.759 92.3087 495.408 91.7684C494.058 91.2281 492.527 90.9579 490.816 90.9579C487.393 90.9579 484.647 92.0386 482.575 94.1999C480.594 96.2712 479.604 99.4232 479.604 103.656Z" fill="#003C5E" style="fill:#003C5E;fill:color(display-p3 0.0000 0.2353 0.3686);fill-opacity:1;"/>
<path d="M412.713 141.21C405.958 141.21 399.835 139.724 394.341 136.752C388.938 133.69 384.66 129.548 381.508 124.325C378.356 119.101 376.78 113.248 376.78 106.764C376.78 100.28 378.356 94.4711 381.508 89.3379C384.66 84.2047 388.938 80.1522 394.341 77.1803C399.745 74.1184 405.868 72.5875 412.713 72.5875C419.557 72.5875 425.681 74.0734 431.084 77.0452C436.487 80.0171 440.765 84.1146 443.917 89.3379C447.069 94.4711 448.645 100.28 448.645 106.764C448.645 113.248 447.069 119.101 443.917 124.325C440.765 129.548 436.487 133.69 431.084 136.752C425.681 139.724 419.557 141.21 412.713 141.21ZM412.713 122.433C415.684 122.433 418.296 121.803 420.548 120.542C422.799 119.191 424.51 117.345 425.681 115.004C426.941 112.572 427.572 109.826 427.572 106.764C427.572 103.702 426.941 101.045 425.681 98.7938C424.42 96.4523 422.664 94.6512 420.412 93.3904C418.251 92.0396 415.684 91.3641 412.713 91.3641C409.831 91.3641 407.264 92.0396 405.013 93.3904C402.761 94.6512 401.005 96.4523 399.745 98.7938C398.484 101.135 397.853 103.837 397.853 106.899C397.853 109.871 398.484 112.572 399.745 115.004C401.005 117.345 402.761 119.191 405.013 120.542C407.264 121.803 409.831 122.433 412.713 122.433Z" fill="#003C5E" style="fill:#003C5E;fill:color(display-p3 0.0000 0.2353 0.3686);fill-opacity:1;"/>
<path d="M345.752 139.726V102.308C345.752 98.8854 344.671 96.1387 342.51 94.0674C340.438 91.9061 337.782 90.8254 334.54 90.8254C332.288 90.8254 330.307 91.3207 328.596 92.3113C326.885 93.2119 325.534 94.5627 324.544 96.3638C323.553 98.0749 323.058 100.056 323.058 102.308L315.088 98.3901C315.088 93.2569 316.168 88.7541 318.33 84.8817C320.491 81.0093 323.508 78.0374 327.38 75.9661C331.253 73.8048 335.711 72.7241 340.754 72.7241C345.887 72.7241 350.39 73.8048 354.262 75.9661C358.134 78.0374 361.106 80.9642 363.178 84.7466C365.339 88.4389 366.42 92.7616 366.42 97.7147V139.726H345.752ZM302.39 139.726V41.6548H323.058V139.726H302.39Z" fill="#003C5E" style="fill:#003C5E;fill:color(display-p3 0.0000 0.2353 0.3686);fill-opacity:1;"/>
<path d="M263.488 141.345C259.616 141.345 255.789 140.85 252.006 139.859C248.314 138.868 244.847 137.473 241.605 135.672C238.453 133.78 235.751 131.619 233.5 129.187L245.252 117.3C247.413 119.642 249.98 121.488 252.952 122.839C255.924 124.099 259.166 124.73 262.678 124.73C265.109 124.73 266.956 124.369 268.216 123.649C269.567 122.929 270.243 121.938 270.243 120.677C270.243 119.056 269.432 117.84 267.811 117.03C266.28 116.129 264.299 115.364 261.867 114.733C259.436 114.013 256.869 113.248 254.168 112.437C251.466 111.627 248.899 110.501 246.468 109.06C244.036 107.619 242.055 105.638 240.524 103.116C238.993 100.505 238.228 97.2176 238.228 93.2551C238.228 89.0225 239.308 85.3752 241.47 82.3133C243.631 79.1613 246.693 76.6848 250.655 74.8837C254.618 73.0826 259.256 72.182 264.569 72.182C270.153 72.182 275.286 73.1726 279.969 75.1539C284.742 77.045 288.614 79.8818 291.586 83.6641L279.834 95.5515C277.762 93.12 275.421 91.409 272.809 90.4183C270.288 89.4277 267.811 88.9324 265.38 88.9324C263.038 88.9324 261.282 89.2926 260.111 90.0131C258.941 90.6435 258.355 91.5891 258.355 92.8499C258.355 94.2007 259.121 95.2814 260.652 96.0919C262.183 96.9024 264.164 97.6228 266.595 98.2532C269.027 98.8836 271.593 99.6491 274.295 100.55C276.997 101.45 279.563 102.666 281.995 104.197C284.426 105.728 286.408 107.799 287.939 110.411C289.47 112.932 290.235 116.264 290.235 120.407C290.235 126.801 287.804 131.889 282.941 135.672C278.168 139.454 271.684 141.345 263.488 141.345Z" fill="#003C5E" style="fill:#003C5E;fill:color(display-p3 0.0000 0.2353 0.3686);fill-opacity:1;"/>
</svg>
